# xmcd CD database file
#
# Track frame offsets:
#	150
#	28703
#	49929
#	86952
#	126192
#	154517
#	188212
#	215188
#	245466
#	274345
#	304673
#	331909
#
# Disc length: 4723 seconds
#
# Revision: 1
# Processed by: cddbd v1.5.2PL0 Copyright (c) Steve Scherf et al.
# Submitted via: CDex 2.20
#
DISCID=b012710c
DTITLE=John Coltrane - Early Trane - While My Lady Sleeps
DYEAR=2008
DGENRE=Jazz
TTITLE0=Straight Street
TTITLE1=While My Lady Sleeps
TTITLE2=Chronic Blues
TTITLE3=Bakai
TTITLE4=Violets For Your Furs
TTITLE5=Time Was
TTITLE6=I Hear A Rhapsody
TTITLE7=Nutty
TTITLE8=Ruby, My Dear
TTITLE9=Trinkle Tinkle
TTITLE10=Trane's Slo Blues
TTITLE11=Like Someone In Love
EXTD=YEAR: 2008
EXTT0=
EXTT1=
EXTT2=
EXTT3=
EXTT4=
EXTT5=
EXTT6=
EXTT7=
EXTT8=
EXTT9=
EXTT10=
EXTT11=
PLAYORDER=
